<?xml version="1.0" encoding="utf-8"?>
<!-- Generator: Adobe Illustrator 21.1.0, SVG Export Plug-In . SVG Version: 6.00 Build 0)  -->
<!DOCTYPE svg PUBLIC "-//W3C//DTD SVG 1.1//EN" "http://www.w3.org/Graphics/SVG/1.1/DTD/svg11.dtd">
<svg version="1.1" id="Layer_1" xmlns="http://www.w3.org/2000/svg" xmlns:xlink="http://www.w3.org/1999/xlink" x="0px" y="0px"
	 viewBox="0 0 49.4 60.4" style="enable-background:new 0 0 49.4 60.4;" xml:space="preserve">
<style type="text/css">
	.st0{fill:#ABAEAF;}
	.st1{fill:#ABAEAF;stroke:#FFFFFF;stroke-miterlimit:10;}
	.st2{fill:#FFFFFF;}
</style>
<g>
	<g>
		<path class="st0" d="M40.6,52.2H1.1c-0.6,0-1.1-0.5-1.1-1.1l0-50C0,0.5,0.5,0,1.1,0l39.4,0c0.6,0,1.1,0.5,1.1,1.1v50
			C41.7,51.7,41.2,52.2,40.6,52.2z"/>
	</g>
	<g>
		<path class="st1" d="M47.7,59.9H8.3c-0.6,0-1.1-0.5-1.1-1.1v-50c0-0.6,0.5-1.1,1.1-1.1h39.4c0.6,0,1.1,0.5,1.1,1.1v50
			C48.9,59.4,48.4,59.9,47.7,59.9z"/>
	</g>
	<rect x="13.5" y="14.5" class="st2" width="27.7" height="5.6"/>
	<rect x="13.5" y="25" class="st2" width="16.1" height="5.6"/>
	<circle class="st2" cx="19.6" cy="44" r="6.3"/>
	<circle class="st2" cx="31.1" cy="46.5" r="2.9"/>
	<rect x="36.2" y="37.7" class="st2" width="5.3" height="11.8"/>
</g>
</svg>
