<?xml version="1.0" encoding="utf-8"?>
<svg version="1.1" xmlns="http://www.w3.org/2000/svg" xmlns:xlink="http://www.w3.org/1999/xlink" height="98" width="70.50802393124127">
  <defs>
    <path id="path-1" opacity="1" fill-rule="evenodd" d="M70.36955110265308,93.13175367240069 L67.93262435165492,82.06562931452666 C67.79439531325797,81.41495329427714 67.44626292025822,80.92761670211574 66.8882271726557,80.6041071184248 C66.28484644949438,80.27864721320447 65.68195330671544,80.23354602783685 64.73068398074555,80.6041071184248 L63.89448362501087,80.81254773188053 C63.522703583467035,80.90421284376282 63.09363284699677,81.00953020635097 62.606540045026534,81.12533054715972 C62.11920345286514,81.24137467815963 61.55190367799792,81.35644364839483 60.90122765774841,81.47321914996829 C60.25396470017537,81.5892632809682 59.566232570867065,81.69433685336517 58.84875803823525,81.78697712601216 C58.129820764456376,81.87791086732092 57.353836585942254,81.96055574212969 56.51788002039877,82.03052352699729 C55.681679664664095,82.09902857071782 54.847429630458855,82.13413435824721 54.01147306491536,82.13413435824721 C48.118088983419774,82.13413435824721 42.816139905717876,80.54535368235133 38.10684478276553,77.3668171697949 C33.39681828923965,74.18730549647375 29.928171449183427,69.88343346144757 27.70114805278804,64.45544485490753 L54.63655111509136,64.45544485490753 C55.14802293617922,64.45544485490753 55.61195566998768,64.28186623879002 56.02810552632562,63.93300247521675 C56.44718086495765,63.58584524298172 56.70242919511923,63.15701829670263 56.79336293642798,62.644815105041246 L58.4638133263679,54.8491361617971 C58.6037488961031,54.1550654875182 58.4638133263679,53.52779332562162 58.0474196798388,52.97048894859263 C57.58348694603032,52.41318457156363 57.00204734007488,52.13428859285796 56.30700150503127,52.13428859285796 L24.360734853290545,52.13428859285796 C24.221530654128884,48.97915593865444 24.221530654128884,46.54320434842098 24.360734853290545,44.825946241775206 L58.32680323892682,44.825946241775206 C59.58085998233765,44.825946241775206 60.32246974389591,44.223296889187424 60.554314215704565,43.01677923305598 L62.22476460564448,35.08189609065017 C62.36299364404144,34.43243902135654 62.203067278629796,33.829789668768754 61.73742801348308,33.27248529173976 C61.32127815714516,32.71566849509313 60.741301292336765,32.43604114581392 59.998716370013796,32.43604114581392 L27.42347102503824,32.43604114581392 C29.743622274462968,27.239165640508993 33.2234834633133,23.15592372849735 37.86427354254511,20.186071619587818 C42.504576041394564,17.21548814010475 47.74801547321416,15.731049666032337 53.59459183800389,15.731049666032337 C53.780847544062574,15.638409393385347 54.46467903031206,15.66181325173827 55.647061457517054,15.800773660708755 C56.830175255295586,15.939246489296886 57.50425513389801,15.997756135179198 57.6658880306479,15.974352276826274 C57.82605818625071,15.951435998855702 58.43187681132379,16.021403783723294 59.47481124917595,16.182792890282 C60.51920842817517,16.345157157605406 61.04165080786596,16.426583081458286 61.04165080786596,16.426583081458286 L62.259626602982685,16.669885692252226 C62.608490366555955,16.740097267310993 62.8751968357028,16.79714417204625 63.0604773809968,16.84419567894327 L63.33912956951128,16.913432093237336 C63.94177892209906,17.099931589487195 64.49713297759865,17.041421943604888 65.0095799594512,16.740097267310997 C65.52032040996552,16.437553640061225 65.84553652499469,15.985810415811564 65.98498451434752,15.382673482841428 L68.97824048160999,4.31581775439385 C69.11671331019811,3.712437031232538 69.04650173513934,3.1556202345858972 68.76979986815425,2.6453673644539277 C68.35169969028694,2.087575407042581 67.88703558590491,1.7396868042340183 67.3765389255818,1.6009701854547107 C63.10801646827616,0.5339005186760701 58.60521163725014,0 53.8732440265184,0 C43.477786484570316,0 34.18694229884199,2.9705834794830652 25.996567036083437,8.909312536537433 C17.806435563516057,14.848529173974148 12.156597883005587,22.691259624115325 9.047541574934394,32.43530977524036 L2.227023396395389,32.43530977524036 C1.5770787467194067,32.43530977524036 1.0439095986168645,32.643750388696084 0.6260532109407076,33.06136298618107 C0.20941577422043176,33.4784880032837 1.4101604786248243e-15,34.01238852195977 1.4101604786248243e-15,34.66233317163576 L1.4101604786248243e-15,42.59721631404156 C1.4101604786248243e-15,43.24667338333519 0.2086844036469047,43.78057390201127 0.6260532109407076,44.197211338731535 C1.0441533888080419,44.61531151659887 1.5780539074841116,44.823264549672245 2.227023396395389,44.823264549672245 L6.890729753597771,44.823264549672245 C6.750550393671404,47.051263106832344 6.728365486274364,49.48599574610993 6.820518178539001,52.13233827132852 L2.227023396395389,52.13233827132852 C1.6238864634252528,52.13233827132852 1.1019316641168206,52.3524808139607 0.6611589984700927,52.79325347960744 C0.2206301230145409,53.23378235506299 0,53.7559809445626 0,54.358386506959214 L0,62.22403323507096 C0,62.82814532880579 0.2206301230145409,63.34863738696718 0.6611589984700927,63.79087279376095 C1.102175454307997,64.23164545940767 1.6238864634252528,64.45008147070163 2.227023396395389,64.45008147070163 L8.839588541861014,64.45008147070163 C11.76287672425588,74.704872072341 17.285212134781148,82.86111670833488 25.40561961267211,88.91613368658034 C33.526514670945424,94.97334477654638 43.01580407229125,98 53.8732440265184,98 C54.75576451857656,98 55.64852419866412,97.97830267298531 56.55371717850168,97.93003221513241 C57.46061668967748,97.88346828861775 58.30583728248566,97.81325671355897 59.094986131323296,97.72159160167668 C59.88340360958741,97.62968269960321 60.66109431943977,97.52631565854448 61.42683930992449,97.40954015697105 C62.191852929835676,97.2927646553976 62.88836150602634,97.1786708459271 63.514170926775876,97.06067639339777 C64.14071171809891,96.94560742316257 64.73239051208377,96.82980708235382 65.28871972834807,96.71449432192745 C65.84602410537705,96.59698744978046 66.34481883652374,96.47094792094232 66.786322872744,96.33076856101596 C67.22685174819954,96.19327089319253 67.59643767802278,96.0879535306044 67.89922509546375,96.01969227707502 C68.20128114233115,95.94972449220744 68.44482754331626,95.86707961739867 68.62913292784556,95.7761458760899 L68.97799669141881,95.70593430103114 C69.48873714193314,95.52065375573714 69.88318967125639,95.18373571153151 70.16111048919736,94.6956677487966 "/>
  </defs>
  <g opacity="1">
    <use xlink:href="#path-1" fill="rgb(255,255,255)" fill-opacity="1"/>
  </g>
</svg>