<?xml version="1.0" encoding="utf-8"?>
<svg version="1.1" xmlns="http://www.w3.org/2000/svg" xmlns:xlink="http://www.w3.org/1999/xlink" height="97.29999999999998" width="52.200000000000045">
  <defs>
    <path id="path-1" opacity="1" fill-rule="evenodd" d="M21.70000000000001,37.4 C22.900000000000013,38.9 25.30000000000001,40.3 28.70000000000001,41.8 C36.60000000000001,45.199999999999996 42.40000000000001,48.5 46.1,51.9 C49.800000000000004,55.29999999999999 51.699999999999996,60.00000000000001 51.699999999999996,66.3 C51.699999999999996,72.2 49.79999999999999,77 46.1,80.6 C42.9,83.69999999999999 38.800000000000004,85.69999999999999 33.800000000000004,86.6 L33.800000000000004,95.19999999999999 C33.800000000000004,96.29999999999998 32.900000000000006,97.29999999999998 31.700000000000003,97.29999999999998 L24.200000000000003,97.29999999999998 C23.1,97.29999999999998 22.1,96.39999999999998 22.1,95.19999999999999 L22.1,86.79999999999998 C15.800000000000002,86.09999999999998 10.600000000000001,83.79999999999998 6.400000000000002,79.99999999999999 C2.5000000000000036,76.49999999999999 0.4000000000000024,71.49999999999999 0.10000000000000125,64.99999999999999 C0,63.699999999999996 1.1000000000000012,62.599999999999994 2.5,62.49999999999999 L14.699999999999996,62.29999999999999 C15.899999999999999,62.29999999999999 16.999999999999993,63.199999999999996 17.099999999999994,64.39999999999998 C17.39999999999999,67.49999999999997 18.299999999999997,69.79999999999998 19.799999999999997,71.39999999999998 C21.599999999999994,73.29999999999998 24,74.19999999999997 27,74.19999999999997 C29.5,74.19999999999997 31.299999999999997,73.49999999999997 32.6,72.09999999999998 C33.9,70.69999999999997 34.5,68.79999999999998 34.5,66.49999999999999 C34.5,63.79999999999999 33.9,61.7 32.6,60.199999999999996 C31.300000000000004,58.699999999999996 29,57.3 25.700000000000003,55.8 C17.700000000000003,52.599999999999994 11.800000000000004,49.4 8.200000000000003,46.1 C4.5000000000000036,42.800000000000004 2.700000000000003,38 2.700000000000003,31.600000000000005 C2.700000000000003,25.8 4.600000000000001,21.1 8.5,17.400000000000002 C12,14 16.6,11.9 22.300000000000004,11.1 L22.300000000000004,2.0999999999999996 C22.300000000000004,0.9999999999999997 23.200000000000003,0 24.400000000000006,0 L31.900000000000002,0 C33.00000000000001,0 34.00000000000001,0.8999999999999995 34.00000000000001,2.0999999999999996 L34.00000000000001,11.299999999999999 C39.300000000000004,12.399999999999997 43.6,14.799999999999997 46.90000000000001,18.6 C50.00000000000001,22.200000000000003 51.70000000000001,26.700000000000003 52.100000000000016,32.1 C52.20000000000001,33.4 51.100000000000016,34.6 49.70000000000001,34.6 L37.20000000000001,34.7 C36.00000000000001,34.7 34.90000000000001,33.800000000000004 34.80000000000001,32.6 C34.60000000000001,29.900000000000002 33.90000000000001,27.900000000000006 32.70000000000001,26.400000000000002 C31.300000000000004,24.699999999999996 29.400000000000006,23.699999999999996 27.000000000000007,23.699999999999996 C24.60000000000001,23.699999999999996 22.800000000000004,24.499999999999993 21.60000000000001,25.899999999999995 C20.400000000000006,27.39999999999999 19.900000000000006,29.299999999999997 19.900000000000006,31.599999999999994 "/>
  </defs>
  <g opacity="1">
    <use xlink:href="#path-1" fill="rgb(255,255,255)" fill-opacity="1"/>
  </g>
</svg>