<?xml version="1.0" encoding="utf-8"?>
<svg version="1.1" xmlns="http://www.w3.org/2000/svg" xmlns:xlink="http://www.w3.org/1999/xlink" height="98" width="67.62013618677042">
  <defs>
    <path id="path-1" opacity="1" fill-rule="evenodd" d="M67.61673151750976,79.61819066147861 L67.61673151750976,98.00000000000001 L0,98.00000000000001 L0,85.98492217898834 C7.864785992217905,82.73005836575877 16.611381322957204,74.2796692607004 16.611381322957204,64.20525291828795 C16.611381322957204,62.125000000000014 16.46838521400779,60.34776264591442 16.165369649805452,58.27431906614788 L1.6308365758754877,58.27431906614788 L1.6308365758754877,43.00097276264592 L13.489299610894948,43.00097276264592 C12.757295719844365,39.2966926070039 12.30447470817121,34.9863813229572 12.30447470817121,30.996108949416346 C12.304474708171215,12.307879377431908 25.95038910505838,0 45.80642023346306,0 C53.9640077821012,0 60.04815175097279,1.7738326848249024 63.30642023346307,3.557879377431907 L59.59533073929965,20.611867704280158 C56.78988326848252,18.98103112840467 52.62937743190665,17.94601167315175 47.15466926070042,17.94601167315175 C36.62062256809341,17.94601167315175 33.36916342412454,24.762159533073934 33.36916342412454,31.884727626459146 C33.36916342412454,35.74562256809339 33.804961089494185,39.30350194552529 34.69357976653699,43.007782101167315 L55.01605058365762,43.007782101167315 L55.01605058365762,58.28112840466926 L36.63083657587551,58.28112840466926 C36.77723735408562,61.99221789883268 36.4844357976654,65.39007782101167 35.289396887159555,68.80836575875486 C33.95817120622571,72.522859922179 31.58511673151753,76.227140077821 28.027237354085628,79.63180933852139 "/>
  </defs>
  <g opacity="1">
    <use xlink:href="#path-1" fill="rgb(255,255,255)" fill-opacity="1"/>
  </g>
</svg>