<?xml version="1.0" encoding="utf-8"?>
<!-- Generator: Adobe Illustrator 21.1.0, SVG Export Plug-In . SVG Version: 6.00 Build 0)  -->
<!DOCTYPE svg PUBLIC "-//W3C//DTD SVG 1.1//EN" "http://www.w3.org/Graphics/SVG/1.1/DTD/svg11.dtd">
<svg version="1.1" id="Layer_1" xmlns="http://www.w3.org/2000/svg" xmlns:xlink="http://www.w3.org/1999/xlink" x="0px" y="0px"
	 viewBox="0 0 41.7 52.2" style="enable-background:new 0 0 41.7 52.2;" xml:space="preserve">
<style type="text/css">
	.st0{fill:#A9ACAD;}
	.st1{fill:#FFFFFF;}
</style>
<g>
	<g>
		<path class="st0" d="M40.6,52.2H1.1c-0.6,0-1.1-0.5-1.1-1.1l0-50C0,0.5,0.5,0,1.1,0l39.4,0c0.6,0,1.1,0.5,1.1,1.1v50
			C41.7,51.7,41.2,52.2,40.6,52.2z"/>
	</g>
	<path class="st1" d="M34,12.5H15.2c-1.1,0-1.9-0.9-1.9-1.9V8.8c0-1.1,0.9-1.9,1.9-1.9H34c1.1,0,1.9,0.9,1.9,1.9v1.8
		C35.9,11.7,35.1,12.5,34,12.5z"/>
	<circle class="st1" cx="7.9" cy="9.7" r="2.8"/>
	<path class="st1" d="M34,22.9H15.2c-1.1,0-1.9-0.9-1.9-1.9v-1.8c0-1.1,0.9-1.9,1.9-1.9H34c1.1,0,1.9,0.9,1.9,1.9V21
		C35.9,22.1,35.1,22.9,34,22.9z"/>
	<path class="st1" d="M34,43.7H7.7c-1.1,0-1.9-0.9-1.9-1.9v0c0-1.1,0.9-1.9,1.9-1.9H34c1.1,0,1.9,0.9,1.9,1.9v0
		C35.9,42.8,35.1,43.7,34,43.7z"/>
	<path class="st1" d="M22.7,36.7h-15c-1.1,0-1.9-0.9-1.9-1.9v0c0-1.1,0.9-1.9,1.9-1.9h15c1.1,0,1.9,0.9,1.9,1.9v0
		C24.6,35.8,23.7,36.7,22.7,36.7z"/>
	<circle class="st1" cx="7.9" cy="20.1" r="2.8"/>
</g>
</svg>
