<?xml version="1.0" encoding="UTF-8"?>
<svg xmlns="http://www.w3.org/2000/svg" xmlns:xlink="http://www.w3.org/1999/xlink" width="100pt" height="100pt" viewBox="0 0 100 100" version="1.1">
<g id="surface1">
<path style=" stroke:none;fill-rule:nonzero;fill:rgb(0%,0%,0%);fill-opacity:1;" d="M 62.5 0 L 62.5 25 L 87.5 25 Z M 62.5 0 "/>
<path style=" stroke:none;fill-rule:nonzero;fill:rgb(0%,0%,0%);fill-opacity:1;" d="M 62.5 31.25 C 59.054688 31.25 56.25 28.445312 56.25 25 L 56.25 0 L 18.75 0 C 15.304688 0 12.5 2.804688 12.5 6.25 L 12.5 93.75 C 12.5 97.199219 15.304688 100 18.75 100 L 81.25 100 C 84.699219 100 87.5 97.199219 87.5 93.75 L 87.5 31.25 Z M 34.375 19.136719 L 34.375 15.625 C 34.375 13.898438 35.773438 12.5 37.5 12.5 C 39.226562 12.5 40.625 13.898438 40.625 15.625 L 40.625 19.144531 C 42.582031 19.585938 44.40625 20.414062 45.914062 21.636719 C 47.257812 22.726562 47.457031 24.695312 46.363281 26.03125 C 45.269531 27.375 43.300781 27.570312 41.96875 26.480469 C 40.789062 25.523438 39.199219 25 37.5 25 C 34.113281 25 31.25 27.144531 31.25 29.6875 C 31.25 32.230469 34.113281 34.375 37.5 34.375 C 44.394531 34.375 50 39.28125 50 45.3125 C 50 50.394531 46 54.636719 40.625 55.863281 L 40.625 59.375 C 40.625 61.101562 39.226562 62.5 37.5 62.5 C 35.773438 62.5 34.375 61.101562 34.375 59.375 L 34.375 55.855469 C 32.417969 55.414062 30.59375 54.585938 29.085938 53.363281 C 27.742188 52.269531 27.542969 50.300781 28.636719 48.960938 C 29.730469 47.613281 31.695312 47.425781 33.03125 48.511719 C 34.210938 49.476562 35.800781 50 37.5 50 C 40.886719 50 43.75 47.855469 43.75 45.3125 C 43.75 42.769531 40.886719 40.625 37.5 40.625 C 30.605469 40.625 25 35.71875 25 29.6875 C 25 24.605469 29 20.363281 34.375 19.136719 Z M 71.875 87.5 L 28.125 87.5 C 26.398438 87.5 25 86.101562 25 84.375 C 25 82.648438 26.398438 81.25 28.125 81.25 L 71.875 81.25 C 73.601562 81.25 75 82.648438 75 84.375 C 75 86.101562 73.601562 87.5 71.875 87.5 Z M 71.875 75 L 28.125 75 C 26.398438 75 25 73.601562 25 71.875 C 25 70.148438 26.398438 68.75 28.125 68.75 L 71.875 68.75 C 73.601562 68.75 75 70.148438 75 71.875 C 75 73.601562 73.601562 75 71.875 75 Z M 71.875 62.5 L 59.375 62.5 C 57.648438 62.5 56.25 61.101562 56.25 59.375 C 56.25 57.648438 57.648438 56.25 59.375 56.25 L 71.875 56.25 C 73.601562 56.25 75 57.648438 75 59.375 C 75 61.101562 73.601562 62.5 71.875 62.5 Z M 71.875 50 L 59.375 50 C 57.648438 50 56.25 48.601562 56.25 46.875 C 56.25 45.148438 57.648438 43.75 59.375 43.75 L 71.875 43.75 C 73.601562 43.75 75 45.144531 75 46.875 C 75 48.601562 73.601562 50 71.875 50 Z M 71.875 50 "/>
</g>
</svg>
