<svg xmlns="http://www.w3.org/2000/svg" width="24" height="24" viewBox="0 0 24 24"><defs><style>.a{fill:#008dbc;}.b{fill:#fff;}</style></defs><g transform="translate(-234 -230)"><circle class="a" cx="12" cy="12" r="12" transform="translate(234 230)"/><g transform="translate(139.52 235)"><g transform="translate(101.48 0)"><path class="b" d="M104.336,7.237l5.413-5.413a.793.793,0,0,0,0-1.119l-.474-.474a.793.793,0,0,0-1.119,0l-6.445,6.445a.8.8,0,0,0,0,1.123l6.439,6.438a.793.793,0,0,0,1.119,0l.474-.474a.792.792,0,0,0,0-1.119Z" transform="translate(-101.48 0)"/></g></g></g></svg>