<svg xmlns="http://www.w3.org/2000/svg" width="24" height="24" viewBox="0 0 24 24">
  <g id="dashboard_icon" transform="translate(-3694 -14000)">
    <rect id="Rectangle_148596" data-name="Rectangle 148596" width="24" height="24" transform="translate(3694 14000)" fill="#cfcfcf" opacity="0"/>
    <g id="dashboard-black-18dp_1_" data-name="dashboard-black-18dp(1)" transform="translate(3694 14000)">
      <path id="Path_61328" data-name="Path 61328" d="M0,0H24V24H0Z" fill="none"/>
      <path id="Path_61329" data-name="Path 61329" d="M4,13h6a1,1,0,0,0,1-1V4a1,1,0,0,0-1-1H4A1,1,0,0,0,3,4v8A1,1,0,0,0,4,13Zm0,8h6a1,1,0,0,0,1-1V16a1,1,0,0,0-1-1H4a1,1,0,0,0-1,1v4A1,1,0,0,0,4,21Zm10,0h6a1,1,0,0,0,1-1V12a1,1,0,0,0-1-1H14a1,1,0,0,0-1,1v8A1,1,0,0,0,14,21ZM13,4V8a1,1,0,0,0,1,1h6a1,1,0,0,0,1-1V4a1,1,0,0,0-1-1H14A1,1,0,0,0,13,4Z" fill="#fff"/>
    </g>
  </g>
</svg>
