<svg xmlns="http://www.w3.org/2000/svg" width="24" height="24" viewBox="0 0 24 24">
  <g id="billing_icon" transform="translate(-3694 -14033)">
    <rect id="Rectangle_148595" data-name="Rectangle 148595" width="24" height="24" transform="translate(3694 14033)" fill="#cfcfcf" opacity="0"/>
    <path id="Path_61327" data-name="Path 61327" d="M14,2H6A2,2,0,0,0,4.01,4L4,20a2,2,0,0,0,1.99,2H18a2.006,2.006,0,0,0,2-2V8Zm1,10H11v1h3a1,1,0,0,1,1,1v3a1,1,0,0,1-1,1H13v1H11V18H9V16h4V15H10a1,1,0,0,1-1-1V11a1,1,0,0,1,1-1h1V9h2v1h2ZM13,8V3.5L17.5,8Z" transform="translate(3694 14033)" fill="#fff"/>
  </g>
</svg>
