<svg xmlns="http://www.w3.org/2000/svg" width="339.792" height="234.913" viewBox="0 0 339.792 234.913">
  <g id="Group_69114" data-name="Group 69114" transform="translate(-630 -158.5)">
    <g id="undraw_active_options_8je6" transform="translate(630 158.5)">
      <path id="Path_61055" data-name="Path 61055" d="M261.374,543.967,257,536.907a104.511,104.511,0,0,1,4.845-10.738l2.869,2.414-2.237-3.615c2.288-4.287,4.074-6.982,4.074-6.982s8.758,14.435,11.476,29.587l-5.967,8.828,6.511-5.046a42.282,42.282,0,0,1,.245,5.308c-.36,17.873-6.488,32.244-13.689,32.1s-12.746-14.751-12.386-32.624a55.669,55.669,0,0,1,3.319-16.64Z" transform="translate(-215.715 -374.515)" fill="#c4d5e2"/>
      <path id="Path_61056" data-name="Path 61056" d="M209.08,566.279l-7.39-3.786a104.523,104.523,0,0,1-1.4-11.7l3.7.584-3.784-1.938c-.258-4.853-.121-8.083-.121-8.083s14.959,7.83,25.117,19.4l-.545,10.641,2.965-7.685a42.293,42.293,0,0,1,2.953,4.417c8.93,15.486,11.112,30.956,4.874,34.554s-18.536-6.039-27.466-21.525a55.669,55.669,0,0,1-5.76-15.96Z" transform="translate(-183.194 -388.945)" fill="#c4d5e2"/>
      <path id="Path_61057" data-name="Path 61057" d="M275.992,719.39c-8.516.545-17.794-.032-27.665,0v-22.6a99.714,99.714,0,0,0,27.665,0Z" transform="translate(-212.999 -484.9)" fill="#c4d5e2"/>
      <path id="Path_61058" data-name="Path 61058" d="M542.773,131.121,452.4,145.673l-.383-87.856L542.39,0Z" transform="translate(-279.054)" fill="#e6e6e6"/>
      <path id="Path_61059" data-name="Path 61059" d="M541.144,148.8l-78.118,16.849V92.129l78.118-42.4Z" transform="translate(-285.85 -30.701)" fill="#fff"/>
      <path id="Path_61096" data-name="Path 61096" d="M-10355.371-18936.77l19.614-8.682v27.775l-19.614,6.8Z" transform="translate(10556 19022.5)" fill="#2b9b15"/>
      <path id="Path_61095" data-name="Path 61095" d="M-10355.371-18938.1l17.274-7.352v23.52l-17.274,5.76Z" transform="translate(10536.17 19034.148)" fill="#f5f5f5"/>
      <path id="Path_61066" data-name="Path 61066" d="M792.691,294.947a1.954,1.954,0,0,1-.766,1.713c-.421.177-.762-.3-.762-1.065a1.962,1.962,0,0,1,.762-1.711C792.348,293.7,792.691,294.178,792.691,294.947Z" transform="translate(-548.119 -236.141)" fill="#fff"/>
      <path id="Path_61068" data-name="Path 61068" d="M792.691,365a1.954,1.954,0,0,1-.766,1.713c-.421.177-.762-.3-.762-1.065a1.962,1.962,0,0,1,.762-1.711C792.348,363.754,792.691,364.23,792.691,365Z" transform="translate(-548.119 -279.388)" fill="#fff"/>
      <path id="Path_61070" data-name="Path 61070" d="M792.691,435.05a1.954,1.954,0,0,1-.766,1.713c-.421.177-.762-.3-.762-1.065a1.962,1.962,0,0,1,.762-1.711C792.348,433.805,792.691,434.281,792.691,435.05Z" transform="translate(-548.119 -322.634)" fill="#fff"/>
      <path id="Path_61072" data-name="Path 61072" d="M657.383,404.979l3.563-3.287s8.065-5.555,5.248-8.609-8.5,4.068-8.5,4.068l-3.524,2.308Z" transform="translate(-463.549 -296.936)" fill="#eeb67d"/>
      <path id="Path_61071" data-name="Path 61071" d="M699.806,437.213a.407.407,0,0,1,.784-.026l.894,2.817,1.233,3.886a.407.407,0,0,1-.232.5l-2.333.972-1.876.782a.407.407,0,0,1-.552-.473l1.111-4.511Z" transform="translate(-490.427 -324.458)" fill="#e6e6e6"/>
      <path id="Path_61073" data-name="Path 61073" d="M535.726,414.8l-2.076,2.857s-2.9,11.154,11.777,11.747c0,0,18.745,9.087,23.386,3.394s17.444-19.388,17.444-19.388l-7.532-7.655L563.377,421.8l-14.891-7.462S540.816,410.107,535.726,414.8Z" transform="translate(-388.999 -305.23)" fill="#17476b"/>
      <path id="Path_61074" data-name="Path 61074" d="M326.569,424.679l-19.434,71.6,2.448.49L330,424.679Z" transform="translate(-189.61 -262.176)" fill="#c4d5e2"/>
      <path id="Path_61075" data-name="Path 61075" d="M413.964,424.679l19.434,71.6-2.448.49-20.413-72.09Z" transform="translate(-253.445 -262.176)" fill="#c4d5e2"/>
      <path id="Path_61076" data-name="Path 61076" d="M384.8,419.26l3.259,73.189,2.83.126-3.641-74.294Z" transform="translate(-237.554 -258.226)" fill="#c4d5e2"/>
      <path id="Path_61077" data-name="Path 61077" d="M523.956,556.438c0,1.856-5.082,3.849-11.752,4.49-7.159.687-13.359-.428-13.359-2.539s6.2-4.189,13.359-4.614C518.875,553.379,523.956,554.582,523.956,556.438Z" transform="translate(-367.656 -396.563)" fill="#e6e6e6"/>
      <path id="Path_61078" data-name="Path 61078" d="M579.074,528.053l4.9,3.428s21.055,15.179,19.1,21.055-12.731,29.379-12.731,29.379l-13.71-4.407,15.669-24.972-8.324-7.835-4.407-10.772Z" transform="translate(-415.674 -380.73)" fill="#17476b"/>
      <path id="Path_61079" data-name="Path 61079" d="M523.769,502.136s-9.793,15.179-3.917,19.586,22.524,21.545,22.524,21.545L545.8,551.1l12.241,39.662,15.179-7.835-13.71-30.848s-1.469-11.262-6.366-17.628-6.855-15.669-6.855-15.669l1.469-4.407-8.767-14.028Z" transform="translate(-379.465 -363.627)" fill="#17476b"/>
      <path id="Path_61080" data-name="Path 61080" d="M573.936,657.139l-8.8-2.679s-9.5-.391-9.014,3.036,8.324,25.952,10.772,24.483.49-8.324.49-8.324Z" transform="translate(-403.004 -458.759)" fill="#17476b"/>
      <path id="Path_61081" data-name="Path 61081" d="M387.772,237.21l-4.9,5.386,7.834,12.731,3.428-9.793Z" transform="translate(-236.369 -146.442)" fill="#eeb67d"/>
      <path id="Path_61082" data-name="Path 61082" d="M543.289,406.284l-8.7-14.4-3.055.692v4.9l-.979,41.131,16.159-2.448S547.7,409.712,543.289,406.284Z" transform="translate(-387.234 -296.665)" fill="#0f9ccd"/>
      <path id="Path_61083" data-name="Path 61083" d="M500.963,406.91l-7.345-13.221-6.366,2.938L475.99,442.655l-6.855,13.221s22.524,11.262,27.91,0,5.876-36.235,5.876-36.235Z" transform="translate(-349.314 -297.78)" fill="#17476b"/>
      <path id="Path_61084" data-name="Path 61084" d="M493.913,403.079l-2.938-1.959s-11.262-2.448-11.262,12.241c0,0-8.324,19.1-2.448,23.5s20.076,16.648,20.076,16.648l7.345-7.835-16.648-14.69,6.855-15.179S498.81,407.976,493.913,403.079Z" transform="translate(-353.037 -302.273)" fill="#17476b"/>
      <path id="Path_61085" data-name="Path 61085" d="M533.118,523.8l3.428,3.428s5.876,7.835,8.814,4.9-4.407-8.324-4.407-8.324l-2.448-3.428Z" transform="translate(-388.814 -375.99)" fill="#eeb67d"/>
      <path id="Path_61086" data-name="Path 61086" d="M561.2,417.907l8.4,20.6s3.428,10.283,3.428,14.2v10.773l-9.3-12.241S558.678,419.339,561.2,417.907Z" transform="translate(-405.717 -312.731)" fill="#17476b"/>
      <path id="Path_61087" data-name="Path 61087" d="M630.831,718.332s-2.426,9.551.758,10.359,29.9,1.493,29.913-3.022-17.337-8.244-17.337-8.244l-6.411-4.114Z" transform="translate(-448.592 -495.1)" fill="#17476b"/>
      <circle id="Ellipse_8" data-name="Ellipse 8" cx="8.814" cy="8.814" r="8.814" transform="translate(148.71 82.199)" fill="#eeb67d"/>
      <path id="Path_61088" data-name="Path 61088" d="M560.07,355.572s1.722-7.46,0-9.182v1.148s-1.148-4.017-3.443-2.869c0,0-2.869-2.3-3.443-1.148-3.377-3.053-18.349-.191-11.081,15.837,0,0,1.325-4.934,1.325-3.212,0,0,3.443-3.443,4.017-4.591S557.774,357.867,560.07,355.572Z" transform="translate(-393.147 -266.142)" fill="#2f2e41"/>
      <rect id="Rectangle_148042" data-name="Rectangle 148042" width="339.792" height="0.857" transform="translate(0 234.055)" fill="#3f3d56"/>
      <path id="Path_61063" data-name="Path 61063" d="M683.806,379.167a.407.407,0,0,1,.784-.026l.894,2.817,1.233,3.886a.407.407,0,0,1-.232.5l-2.333.972-1.876.782a.407.407,0,0,1-.552-.473l1.111-4.511Z" transform="translate(-491.549 -291.623)" fill="#ddd"/>
    </g>
    <path id="Path_61089" data-name="Path 61089" d="M-10355.371-18935.77l19.614-9.682v25.775l-19.614,8.8Z" transform="translate(11167 19161)" fill="#f5f5f5"/>
    <path id="Path_61090" data-name="Path 61090" d="M-10355.371-18935.77l19.614-9.682v25.775l-19.614,8.8Z" transform="translate(11190 19150)" fill="#f5f5f5"/>
    <path id="Path_61092" data-name="Path 61092" d="M-10355.371-18935.77l19.614-9.682v25.775l-19.614,8.8Z" transform="translate(11213 19139)" fill="#f5f5f5"/>
    <path id="Path_61093" data-name="Path 61093" d="M-10355.371-18936.77l19.614-8.682v27.775l-19.614,6.8Z" transform="translate(11214 19170)" fill="#f5f5f5"/>
    <path id="Path_61091" data-name="Path 61091" d="M693.822,313.873a.247.247,0,0,1,.475-.016l1.066,3.361,1.278,4.026a.247.247,0,0,1-.14.3l-2.469,1.029-2.17.9a.247.247,0,0,1-.335-.287l1.187-4.82Z" transform="translate(143.396 -89.889)" fill="#e6e6e6"/>
    <path id="Path_61097" data-name="Path 61097" d="M699.806,437.213a.407.407,0,0,1,.784-.026l.894,2.817,1.233,3.886a.407.407,0,0,1-.232.5l-2.333.972-1.876.782a.407.407,0,0,1-.552-.473l1.111-4.511Z" transform="translate(167.573 -217.959)" fill="#e6e6e6"/>
    <ellipse id="Ellipse_53" data-name="Ellipse 53" cx="3.5" cy="5" rx="3.5" ry="5" transform="translate(840 253)" fill="#fff"/>
    <g id="Ellipse_54" data-name="Ellipse 54" transform="translate(869 242)" fill="none" stroke="#ddd" stroke-width="1">
      <ellipse cx="3.5" cy="5" rx="3.5" ry="5" stroke="none"/>
      <ellipse cx="3.5" cy="5" rx="3" ry="4.5" fill="none"/>
    </g>
    <g id="Ellipse_55" data-name="Ellipse 55" transform="translate(869 210)" fill="none" stroke="#ddd" stroke-width="1">
      <ellipse cx="3" cy="4.5" rx="3" ry="4.5" stroke="none"/>
      <ellipse cx="3" cy="4.5" rx="2.5" ry="4" fill="none"/>
    </g>
    <g id="Ellipse_56" data-name="Ellipse 56" transform="translate(847 221)" fill="none" stroke="#ddd" stroke-width="1">
      <ellipse cx="3" cy="4.5" rx="3" ry="4.5" stroke="none"/>
      <ellipse cx="3" cy="4.5" rx="2.5" ry="4" fill="none"/>
    </g>
    <g id="Ellipse_57" data-name="Ellipse 57" transform="translate(823 232)" fill="none" stroke="#ddd" stroke-width="1">
      <ellipse cx="3" cy="4.5" rx="3" ry="4.5" stroke="none"/>
      <ellipse cx="3" cy="4.5" rx="2.5" ry="4" fill="none"/>
    </g>
    <g id="Ellipse_58" data-name="Ellipse 58" transform="translate(825 235)" fill="none" stroke="#ddd" stroke-width="1">
      <ellipse cx="1" cy="1.5" rx="1" ry="1.5" stroke="none"/>
      <ellipse cx="1" cy="1.5" rx="0.5" ry="1" fill="none"/>
    </g>
    <g id="Ellipse_59" data-name="Ellipse 59" transform="translate(849 224)" fill="none" stroke="#ddd" stroke-width="1">
      <ellipse cx="1" cy="1.5" rx="1" ry="1.5" stroke="none"/>
      <ellipse cx="1" cy="1.5" rx="0.5" ry="1" fill="none"/>
    </g>
    <g id="Ellipse_60" data-name="Ellipse 60" transform="translate(871 245)" fill="#ddd" stroke="#ddd" stroke-width="1">
      <ellipse cx="1.5" cy="2" rx="1.5" ry="2" stroke="none"/>
      <ellipse cx="1.5" cy="2" rx="1" ry="1.5" fill="none"/>
    </g>
    <g id="Ellipse_61" data-name="Ellipse 61" transform="translate(871 213)" fill="none" stroke="#ddd" stroke-width="1">
      <ellipse cx="1" cy="1.5" rx="1" ry="1.5" stroke="none"/>
      <ellipse cx="1" cy="1.5" rx="0.5" ry="1" fill="none"/>
    </g>
    <path id="Path_61098" data-name="Path 61098" d="M-10325.816-18901.834l1.524,1.457,2.572-4.539" transform="translate(11167 19161)" fill="none" stroke="#2b9b15" stroke-linecap="round" stroke-width="1"/>
  </g>
</svg>
